# xmcd
# 
# Track frame offsets:
#     150
#     18153
#     36849
#     49910
#     66887
#     82843
#     100112
#     118378
#     137077
#     155257
#     171253
#     186611
#     204141
#     220059
#     237844
#     254776
#     272684
#     289830
#     308746
#     322340
#     342225
# 
# Disc length: 4794
# 
# Revision: 1
# Processed by: cddbd v1.5.2PL0 Copyright (c) Steve Scherf et al.
# Submitted via: fre:ac v1.0.31
# 
DISCID=3c12b815
DTITLE=Now That's What I Call Music - Now That's What I Call Old Skool Disc 1
DYEAR=2017
DGENRE=R&B
TTITLE0=Jay-Z - Hard Knock Life (The Ghetto Anthem)
TTITLE1=Blackstreet - Dr. Dre - No Diggity
TTITLE2=DJ Jazzy Jeff and The Fresh Prince - The Fresh Prince of Bel-Air
TTITLE3=The Notorious B.I.G - Hypnotize
TTITLE4=Montell Jordan - This Is How We Do It
TTITLE5=The Game - 50 Cent - How We Do
TTITLE6=N.W.A. - Straight Outta Compton
TTITLE7=RUN-DMC - Jason Nevins - It’s Like Tha
TTITLE8=Beastie Boys - No Sleep Till Brooklyn
TTITLE9=House Of Pain - Jump Around
TTITLE10=Mark Morrison - Return Of The Mack (C&J Radio Edit)
TTITLE11=Luniz - I Got 5 On It
TTITLE12=A Tribe Called Quest - Can I Kick It? (7″ Radio Edit)
TTITLE13=TLC - No Scrubs
TTITLE14=Dru Hill - Redman - How Deep Is Your Love
TTITLE15=Fugees - Killing Me Softly with His Song (Radio Edit)
TTITLE16=Blu Cantrell - Sean Paul - Breathe
TTITLE17=R. Kelly - Bump n’ Grind
TTITLE18=LL Cool J - Phenomenon
TTITLE19=OutKast - Ms. Jackson (Radio Mix)
TTITLE20=Missy Elliott - Get Ur Freak On
EXTD=
EXTT0=
EXTT1=
EXTT2=
EXTT3=
EXTT4=
EXTT5=
EXTT6=
EXTT7=
EXTT8=
EXTT9=
EXTT10=
EXTT11=
EXTT12=
EXTT13=
EXTT14=
EXTT15=
EXTT16=
EXTT17=
EXTT18=
EXTT19=
EXTT20=
PLAYORDER=
